<svg width="112" height="46" viewBox="0 0 112 46" fill="none" xmlns="http://www.w3.org/2000/svg">
<path d="M15.3689 14.28C12.3689 14.28 9.48887 15.24 7.32887 16.62V-3.57628e-06H0.608865V45H4.56887L5.64887 42.6C8.28887 44.52 11.3489 45.72 15.3689 45.72C24.1289 45.72 27.3689 39.84 27.3689 30C27.3689 20.22 24.1289 14.28 15.3689 14.28ZM13.8089 19.98C19.6889 19.98 20.5889 24.48 20.5889 30C20.5889 35.58 19.6889 40.02 13.8089 40.02C10.6289 40.02 8.52886 38.94 7.32887 38.28V21.72C8.52886 21.06 10.6289 19.98 13.8089 19.98ZM46.4484 24.3V25.8L39.7284 26.34C32.9484 26.88 28.7484 29.64 28.7484 36.12C28.7484 40.92 31.3284 45.72 39.0684 45.72C42.3684 45.72 45.7284 44.58 48.1284 42.6L49.2084 45H53.1684V24.96C53.1684 18.6 50.8884 14.28 41.0484 14.28C37.5084 14.28 33.5484 15 31.2084 16.02V21.84C33.4884 20.94 36.6684 20.04 40.5684 20.04C45.0084 20.04 46.4484 21.24 46.4484 24.3ZM46.4484 30.42V38.22C44.5884 39.42 42.7284 40.2 40.0284 40.2C36.3684 40.2 35.4084 38.04 35.4084 35.76C35.4084 32.64 37.1484 31.5 40.1484 31.14L46.4484 30.42ZM81.374 45V23.82C81.374 18.06 78.674 14.28 71.054 14.28C67.814 14.28 64.394 15.3 61.334 17.4L60.254 15H56.294V45H63.014V21.72C64.634 20.82 66.794 19.98 69.914 19.98C73.094 19.98 74.654 21.36 74.654 24.42V45H81.374ZM110.499 15H101.799L91.1789 26.64V-3.57628e-06H84.4589V45H91.1789V34.62L94.0589 31.68L103.419 45H111.759L98.3189 27.36L110.499 15Z" fill="#002F6C"/>
</svg>
