<svg width="22" height="26" viewBox="0 0 22 26" fill="none" xmlns="http://www.w3.org/2000/svg">
<path fill-rule="evenodd" clip-rule="evenodd" d="M0 2C0 0.89543 0.895431 0 2 0H20C21.1046 0 22 0.895431 22 2V20C22 21.1046 21.1046 22 20 22H14.8492L11.3033 25.5459C11.108 25.7412 10.7914 25.7412 10.5962 25.5459L7.05021 22H2C0.89543 22 0 21.1046 0 20V2ZM8.13992 15.7805C7.8049 16.0137 7.52392 16.0707 7.30238 15.9049C7.08084 15.7442 7.03221 15.4799 7.1673 15.1015L8.29662 11.8777L5.41118 9.8875C5.07617 9.65945 4.93568 9.42104 5.02754 9.16189C5.11399 8.91311 5.36795 8.78872 5.78402 8.7939L9.32327 8.81463L10.3986 5.5753C10.5282 5.19177 10.7228 5 10.9983 5C11.2793 5 11.4738 5.19177 11.6035 5.5753L12.6788 8.81463L16.2181 8.7939C16.6341 8.78872 16.8881 8.91311 16.9745 9.16189C17.061 9.42104 16.9259 9.65945 16.5909 9.8875L13.7055 11.8777L14.8348 15.1015C14.9699 15.4799 14.9212 15.7442 14.6997 15.9049C14.4727 16.0707 14.1972 16.0137 13.8622 15.7805L10.9983 13.7643L8.13992 15.7805Z" fill="#002F6C"/>
</svg>
