<svg width="378" height="198" viewBox="0 0 378 198" fill="none" xmlns="http://www.w3.org/2000/svg">
<g clip-path="url(#clip0_242_342)">
<rect width="378" height="198" fill="white"/>
<path d="M170.285 92.1028C169.757 86.9008 169.074 81.7298 168.281 76.5743C167.489 71.4187 166.589 66.2942 165.532 61.1851C165.004 58.6306 162.675 48.4898 162.053 45.9662C160.826 40.9036 159.537 35.8719 158.248 30.8248C158.124 30.3603 158.419 29.8804 158.885 29.772C159.32 29.6636 159.77 29.9113 159.926 30.3294C161.65 35.2836 163.094 40.3308 164.336 45.4244C164.958 47.9789 165.501 50.5334 166.014 53.1035C166.526 55.6735 166.961 58.259 167.381 60.8445C168.219 66.0155 168.918 71.2175 169.446 76.4194C169.974 81.6214 170.316 86.8543 170.533 92.0718C170.533 92.1337 170.487 92.1956 170.425 92.1956C170.332 92.2111 170.285 92.1647 170.285 92.1028Z" fill="#E91A2A"/>
<path d="M185.925 81.1724C186.111 77.7509 186.406 74.3448 186.857 70.9388C187.307 67.5327 187.897 64.1576 188.596 60.7826C189.295 57.423 190.072 54.0633 191.143 50.7811C192.215 47.5144 193.395 44.2787 194.855 41.1513C195.057 40.7178 195.585 40.532 196.02 40.7333C196.424 40.9191 196.61 41.3835 196.486 41.7861C195.461 45.0218 194.358 48.2266 193.364 51.4778C192.37 54.7136 191.314 57.9339 190.413 61.2161C189.513 64.4828 188.72 67.7959 188.006 71.1246C187.292 74.4532 186.655 77.8128 186.158 81.1879C186.142 81.2498 186.096 81.2963 186.018 81.2808C185.971 81.2808 185.925 81.2344 185.925 81.1724Z" fill="#E91A2A"/>
<path d="M150.389 81.7917C148.215 76.3575 145.745 71.0781 142.934 66C141.521 63.4609 139.983 60.9993 138.508 58.5067C137.032 56.0141 135.479 53.5679 133.973 51.0753C133.724 50.6573 133.864 50.1309 134.268 49.8832C134.64 49.651 135.122 49.7438 135.386 50.069C137.281 52.3448 138.943 54.791 140.496 57.2991C142.049 59.8072 143.353 62.4701 144.58 65.1485C147.065 70.5053 149.084 76.0479 150.591 81.7143C150.607 81.7762 150.576 81.8381 150.513 81.8536C150.467 81.8846 150.405 81.8536 150.389 81.7917Z" fill="#E91A2A"/>
<path d="M196.874 89.9352C198.288 85.5538 199.98 81.2498 202 77.1006C204.019 72.9514 206.333 68.9261 208.911 65.0711C210.2 63.1513 211.536 61.247 212.98 59.4201C214.409 57.5932 215.916 55.8128 217.5 54.1098C220.653 50.7037 224.101 47.5454 227.828 44.7741C228.216 44.4799 228.76 44.5574 229.055 44.9444C229.319 45.3005 229.272 45.8114 228.946 46.1056C225.576 49.1865 222.299 52.3448 219.224 55.6735C216.133 59.0021 213.182 62.4701 210.464 66.1238C207.731 69.7776 205.292 73.6327 203.056 77.6115C200.819 81.6059 198.831 85.7241 197.123 89.9972C197.092 90.0591 197.03 90.0901 196.967 90.0591C196.89 90.0436 196.859 89.9817 196.874 89.9352Z" fill="#E91A2A"/>
<path d="M147.035 101.284C144.534 97.6298 141.769 94.1618 138.819 90.8797C135.868 87.5975 132.715 84.5165 129.376 81.6678C126.021 78.8191 122.464 76.2491 118.845 73.772C115.227 71.2949 111.437 69.0654 107.585 66.9444C107.166 66.7122 107.011 66.1858 107.243 65.7523C107.461 65.3652 107.942 65.1949 108.362 65.3807C112.493 67.1457 116.407 69.3751 120.15 71.8522C123.893 74.3293 127.356 77.2245 130.634 80.2899C133.895 83.3554 136.955 86.6531 139.735 90.1365C142.515 93.6355 145.015 97.3357 147.268 101.16C147.299 101.222 147.283 101.284 147.221 101.315C147.143 101.346 147.066 101.33 147.035 101.284Z" fill="#E91A2A"/>
<path d="M243.639 25.886L241.837 33.0387L246.73 38.5658L239.352 39.0922L235.594 45.4398L232.814 38.5968L225.592 36.9866L231.26 32.2491L230.562 24.9106L236.836 28.8121L243.639 25.886Z" fill="#E91A2A"/>
<path d="M166.402 25.2512L156.757 22.3096L148.867 28.5489L148.696 18.5011L140.31 12.9275L149.846 9.67628L152.548 0L158.605 8.03519L168.685 7.61717L162.892 15.8381L166.402 25.2512Z" fill="#E91A2A"/>
<path d="M87.6585 50.7347L95.1135 52.7474L101 47.7776L101.388 55.4567L107.958 59.4975L100.751 62.2379L98.9186 69.7312L94.0729 63.7241L86.3694 64.3124L90.5939 57.8564L87.6585 50.7347Z" fill="#E91A2A"/>
<path d="M231.354 70.7375C231.354 68.0901 233.513 65.938 236.168 65.938C238.824 65.938 240.983 68.0901 240.983 70.7375C240.983 73.3849 238.824 75.5369 236.168 75.5369C233.513 75.5369 231.354 73.4004 231.354 70.7375Z" fill="#E91A2A"/>
<path d="M110.722 89.9662C110.722 88.1238 112.229 86.6221 114.077 86.6221C115.925 86.6221 117.432 88.1238 117.432 89.9662C117.432 91.8086 115.925 93.3103 114.077 93.3103C112.229 93.3103 110.722 91.8086 110.722 89.9662Z" fill="#E91A2A"/>
<path d="M0 146.383C0 143.735 2.15885 141.583 4.81469 141.583C7.47054 141.583 9.62939 143.735 9.62939 146.383C9.62939 149.03 7.47054 151.182 4.81469 151.182C2.15885 151.182 0 149.03 0 146.383Z" fill="#E91A2A"/>
<path d="M277.062 68.6784C277.062 66.836 278.569 65.3343 280.417 65.3343C282.265 65.3343 283.772 66.836 283.772 68.6784C283.772 70.5208 282.265 72.0225 280.417 72.0225C278.569 72.0225 277.062 70.5208 277.062 68.6784Z" fill="#E91A2A"/>
<path d="M204.454 150.795C204.454 148.953 205.96 147.451 207.808 147.451C209.657 147.451 211.163 148.953 211.163 150.795C211.163 152.638 209.657 154.139 207.808 154.139C205.96 154.139 204.454 152.638 204.454 150.795Z" fill="#E91A2A"/>
<path d="M13.0462 82.767C14.8989 82.767 16.4009 81.2698 16.4009 79.4229C16.4009 77.576 14.8989 76.0788 13.0462 76.0788C11.1934 76.0788 9.69141 77.576 9.69141 79.4229C9.69141 81.2698 11.1934 82.767 13.0462 82.767Z" fill="#E91A2A"/>
<path d="M371.306 154.403C371.306 152.56 372.813 151.058 374.661 151.058C376.509 151.058 378.016 152.56 378.016 154.403C378.016 156.245 376.509 157.747 374.661 157.747C372.813 157.747 371.306 156.245 371.306 154.403Z" fill="#E91A2A"/>
<path d="M244.54 174.978C246.393 174.978 247.895 173.481 247.895 171.634C247.895 169.787 246.393 168.29 244.54 168.29C242.687 168.29 241.185 169.787 241.185 171.634C241.185 173.481 242.687 174.978 244.54 174.978Z" fill="#E91A2A"/>
<path d="M329.838 168.507C329.838 166.664 331.344 165.163 333.192 165.163C335.041 165.163 336.547 166.664 336.547 168.507C336.547 170.349 335.041 171.851 333.192 171.851C331.344 171.851 329.838 170.364 329.838 168.507Z" fill="#E91A2A"/>
<path d="M36.2188 170.055C38.0715 170.055 39.5735 168.558 39.5735 166.711C39.5735 164.864 38.0715 163.367 36.2188 163.367C34.366 163.367 32.864 164.864 32.864 166.711C32.864 168.558 34.366 170.055 36.2188 170.055Z" fill="#E91A2A"/>
<path d="M359.751 83.3244C361.604 83.3244 363.106 81.8272 363.106 79.9803C363.106 78.1334 361.604 76.6362 359.751 76.6362C357.898 76.6362 356.396 78.1334 356.396 79.9803C356.396 81.8272 357.898 83.3244 359.751 83.3244Z" fill="#E91A2A"/>
<path d="M72.1116 86.0183C72.1116 83.3708 74.2704 81.2188 76.9263 81.2188C79.5821 81.2188 81.741 83.3708 81.741 86.0183C81.741 88.6657 79.5821 90.8177 76.9263 90.8177C74.2704 90.8177 72.1116 88.6657 72.1116 86.0183Z" fill="#E91A2A"/>
<path d="M152.269 162.515C152.269 159.868 154.427 157.716 157.083 157.716C159.739 157.716 161.898 159.868 161.898 162.515C161.898 165.163 159.739 167.315 157.083 167.315C154.427 167.315 152.269 165.163 152.269 162.515Z" fill="#E91A2A"/>
<path d="M323.144 78.0295L323.485 83.8663L328.486 86.9008L323.035 89.0218L321.684 94.7037L317.972 90.1829L312.132 90.6629L315.3 85.7396L313.033 80.3518L318.702 81.8381L323.144 78.0295Z" fill="#E91A2A"/>
<path d="M78.5571 152.374L78.8988 158.211L83.9154 161.246L78.4484 163.367L77.0971 169.064L73.3852 164.528L67.5454 165.008L70.7138 160.1L68.4462 154.712L74.1151 156.198L78.5571 152.374Z" fill="#E91A2A"/>
<path d="M285.651 149.015L289.565 153.365L295.389 152.622L292.438 157.669L294.954 162.949L289.223 161.726L284.952 165.735L284.362 159.93L279.206 157.127L284.564 154.759L285.651 149.015Z" fill="#E91A2A"/>
<path d="M117.23 188.479C117.23 186.636 118.737 185.134 120.585 185.134C122.433 185.134 123.939 186.636 123.939 188.479C123.939 190.321 122.433 191.823 120.585 191.823C118.737 191.807 117.23 190.321 117.23 188.479Z" fill="#E91A2A"/>
<path d="M182.027 181.264L185.94 185.614L191.749 184.871L188.814 189.918L191.314 195.213L185.583 193.975L181.328 198L180.722 192.179L175.581 189.376L180.939 187.008L182.027 181.264Z" fill="#E91A2A"/>
<path d="M370.483 130.065C369.846 130.359 368.386 131.025 368.215 132.495C368.091 133.61 368.743 134.694 369.66 135.189C370.514 135.654 371.368 135.468 372.052 135.329C372.688 135.189 373.667 135.019 374.257 134.214C375.08 133.115 375.111 131.056 373.915 130.034C372.735 129.043 371.104 129.786 370.483 130.065Z" fill="black"/>
<path d="M374.723 89.9507C373.776 89.2541 372.269 89.0218 370.84 89.3624C369.831 89.5947 369.085 90.0901 368.775 90.6939C368.604 91.0345 368.588 91.5918 368.588 92.9543C368.588 93.8058 368.573 94.2393 368.635 95.0289C368.743 96.7009 369.737 118.035 369.815 123.949C369.815 124.522 369.846 126.055 370.856 126.705C371.197 126.922 371.617 127.03 372.052 127.03C372.657 127.03 373.294 126.814 373.713 126.411C374.397 125.776 374.397 124.801 374.397 124.46C374.381 118.639 374.863 112.74 375.329 107.027C375.624 103.389 375.934 99.6115 376.105 95.8959L376.121 95.7101C376.214 93.5581 376.323 91.1429 374.723 89.9507Z" fill="#002F6C"/>
<path d="M287.344 104.86C287.592 104.953 287.856 104.999 288.12 104.999C288.866 104.999 289.596 104.659 290.046 104.256C290.916 103.482 290.978 102.398 291.056 101.129C291.164 99.1471 291.273 97.2583 289.984 96.4997C288.881 95.8494 287.049 96.2829 286.07 97.4286C285.154 98.4968 285.309 99.8283 285.433 101.005C285.542 102.151 285.791 104.287 287.344 104.86Z" fill="black"/>
<path d="M359.689 128.47C357.017 126.132 354.253 123.733 353.259 119.568C352.808 117.679 352.886 116.193 353.492 114.846C354.672 112.229 357.934 110.201 359.72 110.991C361.102 111.595 361.956 112.369 362.593 113.576C362.841 114.041 363.307 114.118 363.68 113.979C364.084 113.824 364.426 113.406 364.301 112.864C364.037 111.765 363.183 109.071 360.947 107.848C357.825 106.145 353.057 107.182 350.059 110.232C347.046 113.298 347.17 117.834 347.186 118.654C347.186 118.887 347.201 119.243 347.248 119.723C347.621 122.819 349.438 124.987 350.183 125.854C350.37 126.07 350.572 126.287 350.774 126.504C349.221 128.609 347.062 130.854 344.313 132.093C343.567 132.418 343.194 132.495 342.853 132.341C341.672 131.83 341.89 128.733 342.278 123.609C342.34 122.788 342.402 121.921 342.464 120.992C343.132 111.378 342.868 108.638 341.222 107.647C340.073 106.966 338.675 107.368 337.758 107.631C335.475 108.297 333.363 110.294 328.89 118.778C328.906 118.531 328.906 118.314 328.906 118.051C328.921 117.726 328.937 117.385 328.952 116.998C329.201 112.214 329.294 107.894 327.881 107.569C327.617 107.507 327.104 107.554 326.436 107.616C325.38 107.709 324.805 107.771 324.371 108.049C323.377 108.684 323.454 110.248 323.485 110.774C323.609 112.926 323.532 115.109 323.454 117.23C323.439 117.493 323.439 117.772 323.439 118.051C323.035 118.283 322.553 118.515 322.01 118.716C321.171 119.026 320.395 119.196 319.773 119.274C318.857 112.849 315.518 107.972 311.604 107.368C307.892 106.795 305.624 108.684 305.593 108.7L304.32 110.263C300.856 111.285 298.185 114.242 296.989 118.391C296.135 121.317 296.135 124.445 296.834 127.247C295.902 128.393 294.923 129.492 293.836 130.467C291.553 132.526 290.839 132.495 290.683 132.434C290.202 132.248 289.736 131.412 289.829 126.597C289.876 123.825 290.077 121.89 290.31 119.63C290.388 118.887 290.466 118.097 290.543 117.246C291.304 109.133 290.714 108.096 289.938 107.647C288.788 106.981 286.94 107.647 285.993 108.653C285.123 109.582 285.03 110.79 284.999 111.239C284.626 115.976 284.517 120.125 284.502 122.85C283.259 124.677 281.846 126.318 280.246 127.727C278.724 129.058 275.897 131.567 274.329 130.761C273.117 130.158 273.117 127.696 273.133 126.659C273.148 119.429 273.226 113.793 273.319 109.443C274.018 109.412 274.686 109.365 275.292 109.35C280.433 109.102 281.986 109.025 282.7 107.693C283.275 106.625 283.057 105.077 282.25 104.457C281.489 103.869 280.386 104.241 279.221 104.628C279.066 104.674 278.895 104.736 278.74 104.783C277.171 105.293 275.292 105.727 273.412 106.068C273.599 98.9303 273.832 96.4377 273.832 96.3913C273.94 95.3075 274.049 92.753 272.915 92.2885C272.527 92.1337 271.937 92.2885 270.617 92.6601C269.84 92.8769 269.436 92.9852 269.172 93.171C268.07 93.9451 268.101 95.6481 268.101 96.2365C268.116 98.1098 268.023 102.507 267.914 106.842C266.703 106.966 265.724 107.027 265.134 107.043C264.715 107.043 263.581 107.058 263.239 107.74C263.053 108.096 263.162 108.498 263.255 108.7C263.566 109.489 264.979 109.721 267.107 109.721C267.34 109.721 267.588 109.721 267.837 109.706C267.821 110.697 267.448 119.119 267.417 121.627C267.402 122.773 267.402 124.476 267.464 126.566C266.812 127.092 266.144 127.619 265.476 128.114C261.811 130.839 260.91 130.963 260.537 130.777C259.574 130.312 259.729 128.037 259.869 125.993C260.646 114.784 260.987 108.405 259.139 107.74C258.596 107.538 257.555 107.74 256.965 107.863C256.359 108.003 255.722 108.142 255.272 108.576C254.915 108.901 254.744 109.334 254.666 109.752C253.377 108.715 251.653 107.771 249.479 107.631C249.277 107.616 249.09 107.616 248.904 107.616C244.617 107.616 241.744 110.867 240.766 111.966C237.442 115.713 235.951 121.735 236.945 127.309C236.976 127.495 237.023 127.681 237.069 127.866C232.829 132.449 231.136 133.053 230.468 132.681C230.329 132.604 230.003 132.418 229.738 129.833C229.521 127.588 229.506 125.327 229.738 123.113C233.668 117.772 236.448 111.997 237.986 105.959C240.175 97.4131 238.576 93.5735 237.426 92.0563C237.085 91.6073 236.199 90.4152 234.646 89.9817C232.115 89.2541 229.614 91.0809 228.791 91.6693C226.43 93.3878 224.132 97.2428 224.132 123.361C224.132 124.383 224.132 125.59 224.194 126.829C223.091 128.207 221.973 129.461 220.855 130.498C220.435 130.885 219.55 131.706 218.991 131.489C218.276 131.21 218.261 129.337 218.261 128.718C218.261 126.984 218.385 124.274 218.509 121.426C218.727 116.626 218.991 111.192 218.696 108.792C218.665 108.545 218.572 107.802 217.997 107.353C217.546 106.996 216.816 106.888 216.024 107.027C214.937 107.244 213.959 107.879 213.477 108.7C212.996 109.536 213.104 110.418 213.136 110.79C213.213 111.641 213.182 115.589 213.12 123.469C213.12 124.352 213.089 125.064 213.073 125.482C211.971 126.999 210.728 128.346 209.299 129.461C208.321 130.22 205.323 132.526 204.096 131.721C203.429 131.288 203.475 129.523 203.63 125.977C203.863 120.543 204.019 114.614 204.252 110.867C204.314 109.752 204.423 107.91 203.397 107.337C202.528 106.857 201.223 107.507 200.555 108.065C199.453 108.994 199.188 110.325 199.111 110.759C198.427 114.35 198.319 119.429 198.272 121.348C198.257 122.014 198.226 122.664 198.21 123.33C197.045 124.971 195.741 126.457 194.281 127.758C192.759 129.089 189.916 131.582 188.363 130.792C187.152 130.189 187.152 127.727 187.167 126.69C187.183 119.46 187.26 113.824 187.354 109.474C188.053 109.443 188.72 109.396 189.326 109.381C194.467 109.133 196.02 109.056 196.735 107.724C197.309 106.656 197.092 105.108 196.284 104.488C195.523 103.9 194.42 104.272 193.256 104.659C193.1 104.705 192.929 104.767 192.774 104.814C191.205 105.324 189.326 105.758 187.447 106.099C187.633 98.9613 187.866 96.4687 187.866 96.4222C187.959 95.3385 188.084 92.784 186.95 92.3195C186.562 92.1647 185.971 92.3195 184.667 92.6756C183.89 92.8923 183.486 93.0007 183.207 93.1865C182.104 93.9606 182.135 95.6791 182.135 96.2519C182.151 98.1253 182.057 102.538 181.949 106.857C180.737 106.981 179.759 107.043 179.169 107.058C178.749 107.058 177.616 107.074 177.274 107.755C177.087 108.111 177.196 108.514 177.289 108.715C177.6 109.505 179.013 109.737 181.141 109.737C181.374 109.737 181.623 109.737 181.871 109.721C181.84 111.192 181.654 116.564 181.592 117.757C181.498 119.707 181.328 123.206 181.498 126.581C180.846 127.108 180.178 127.634 179.51 128.13C175.845 130.854 174.944 130.978 174.571 130.792C173.608 130.328 173.764 128.052 173.904 126.008C174.68 114.799 175.022 108.421 173.174 107.755C172.63 107.554 171.589 107.755 170.999 107.879C170.362 108.018 169.757 108.158 169.306 108.591C168.949 108.916 168.778 109.35 168.701 109.768C167.412 108.73 165.688 107.786 163.513 107.647C158.916 107.337 155.81 110.821 154.785 111.966C151.461 115.713 149.97 121.735 150.964 127.309C151.026 127.634 151.088 127.928 151.166 128.238C147.873 132.124 146.693 132.495 146.289 132.279C145.885 132.062 145.978 130.792 146.305 126.55L146.351 125.962C146.895 118.84 146.988 116.951 145.808 116.301C145.342 116.038 144.922 116.146 144.285 116.317C143.773 116.456 143.058 116.626 141.971 116.704C140.775 116.781 139.579 116.719 138.399 116.487C139.595 114.861 141.832 111.393 141.039 109.056C140.946 108.792 140.822 108.56 140.651 108.359C139.424 106.826 136.178 106.873 134.221 108.436C133.227 109.226 132.808 110.248 132.637 110.681C131.767 112.833 132.078 115.512 133.414 117.478C133.709 117.911 134.066 118.283 134.439 118.639C132.435 121.209 130.478 123.748 128.614 126.194C128.847 121.844 129.127 116.673 129.453 110.65C129.484 110.031 129.593 108.173 128.63 107.693C128.366 107.554 128.086 107.585 127.589 107.631C126.921 107.709 125.679 107.833 124.98 108.669C124.576 109.149 124.483 109.737 124.452 110.17C123.132 108.978 121.253 107.817 118.83 107.647C114.201 107.322 111.126 110.882 110.101 112.044C106.762 115.883 105.271 122.045 106.296 127.742C106.327 127.882 106.358 128.021 106.389 128.16C105.007 129.709 103.298 131.179 101.264 132.093C100.518 132.418 100.146 132.495 99.8039 132.341C98.6235 131.83 98.841 128.733 99.2292 123.624C99.2914 122.804 99.3535 121.937 99.4156 121.008C100.083 111.393 99.8194 108.653 98.1731 107.662C97.0238 106.981 95.626 107.384 94.7096 107.647C92.4265 108.312 90.3143 110.31 85.8413 118.794C85.8568 118.391 85.8879 117.787 85.9189 117.029C86.214 108.452 85.2666 107.693 84.8473 107.6C84.5833 107.538 84.0707 107.585 83.4029 107.647C82.3468 107.74 81.7721 107.802 81.3217 108.08C80.3277 108.715 80.4053 110.279 80.4364 110.805C80.5607 112.942 80.483 115.14 80.4053 117.246C80.3898 117.493 80.3898 117.757 80.3898 118.004C80.2034 118.097 80.0481 118.221 79.8617 118.314C78.8833 118.763 77.8272 119.072 76.7555 119.243C76.2896 116.038 75.2179 113.205 73.7735 111.115C72.8261 109.737 71.2264 107.894 68.555 107.337C68.1512 107.26 64.8585 106.625 62.4823 108.715C61.861 109.257 61.4727 109.83 61.2398 110.248C57.7763 111.285 55.0894 114.258 53.8935 118.391C53.4586 119.909 53.2567 121.472 53.2412 123.036C51.0668 125.9 47.2616 129.538 41.4374 130.653C35.4113 131.799 31.5129 130.235 29.3075 128.733C21.0293 123.051 22.1476 108.916 26.1391 100.897C26.6982 99.7818 29.82 94.0225 36.2965 90.8487C37.8497 90.0901 41.7636 88.4954 44.4039 90.183C46.7957 91.7157 48.5197 95.8804 47.0287 98.3885C46.2055 99.7664 46.8578 101.144 47.9139 101.795C48.9079 102.398 50.3834 102.429 51.2687 101.036C53.3033 97.8156 53.8313 94.874 52.8373 92.3195C52.185 90.6629 51.16 89.6411 50.7251 89.2076C47.7276 86.2351 43.736 85.9564 42.2295 85.8635C37.1974 85.5229 33.4233 87.5975 31.808 88.48C24.2909 92.5982 16.3855 102.646 16.8048 114.97C17.1154 124.027 20.3615 130.823 25.9527 134.121C28.4843 135.623 31.4042 136.366 34.6347 136.366C35.5821 136.366 36.5606 136.304 37.5701 136.165C45.1649 135.174 50.3989 130.127 53.4741 126.039C53.9245 128.687 54.9807 131.133 56.5959 132.96C58.5684 135.174 61.1932 136.103 63.818 136.103C66.1787 136.103 68.5239 135.344 70.3722 134.121C74.0065 131.69 76.3983 127.263 76.8176 122.246C78.0446 121.999 79.2094 121.581 80.3122 121.008C80.3122 121.132 80.2966 121.255 80.2966 121.395C80.2966 123.655 80.3743 125.947 80.4364 128.16C80.4985 130.096 80.5607 132.093 80.5762 134.059C80.5762 134.415 80.5917 135.344 81.2596 135.809C81.5236 135.994 81.8653 136.056 82.1914 136.056C83.1699 136.056 84.226 135.483 84.2882 135.453C86.1985 134.415 86.0898 131.907 85.9034 127.371C85.8568 126.349 85.8258 125.203 85.7947 123.965C87.41 121.503 89.0718 119.072 90.8268 116.719C92.0849 115.032 93.2497 113.514 93.7312 113.514C94.2282 113.685 94.0729 115.419 93.8399 117.818C93.638 120.079 93.3429 123.16 93.2963 127.046C93.2497 131.505 93.5759 134.152 95.4707 135.437C96.4492 136.103 97.5208 136.165 98.1421 136.165C98.2197 136.165 98.2818 136.165 98.3284 136.165C101.761 136.118 104.929 133.564 107.243 131.04C108.098 133.084 109.34 134.632 110.847 135.453C111.918 136.041 113.238 136.335 114.621 136.335C115.739 136.335 116.888 136.134 117.975 135.747C120.507 134.818 121.843 132.975 123.396 130.839C123.551 130.638 123.675 130.405 123.815 130.204C123.784 131.04 123.753 131.876 123.722 132.712C119.078 139.013 115.258 144.494 112.757 148.473C111.483 150.486 108.843 154.697 110.194 158.83C110.847 160.812 112.136 162.035 112.804 162.654C114.155 163.924 115.941 164.466 117.743 164.466C119.622 164.466 121.501 163.878 122.883 162.902C123.939 162.159 124.514 161.323 125.027 160.58C126.657 158.18 126.984 155.796 127.263 152.684C127.636 148.519 127.822 146.414 127.776 144.231C127.745 142.961 127.947 138.58 128.366 130.607C130.851 126.968 133.414 123.361 135.992 119.785C137.716 120.683 139.859 120.961 141.987 120.481C141.707 123.407 141.443 126.457 141.21 129.585C141.055 131.505 140.869 133.873 142.251 134.864C142.981 135.391 144.208 135.514 144.472 135.545C144.472 135.545 146.196 135.437 146.537 135.375C148.463 135.05 151.585 131.412 151.709 131.257C151.803 131.133 151.896 131.009 152.005 130.901C152.859 132.79 154.055 134.214 155.499 134.988C156.571 135.561 157.891 135.855 159.273 135.855C160.391 135.855 161.541 135.669 162.612 135.282C165.144 134.369 166.495 132.557 168.048 130.467C168.157 130.328 168.235 130.173 168.343 130.034C168.421 133.037 168.53 134.88 169.897 135.7C170.362 135.979 170.859 136.072 171.372 136.072C172.211 136.072 173.049 135.809 173.686 135.607C176.031 134.864 177.352 133.471 179.992 130.715C180.535 130.142 181.079 129.569 181.638 128.996C181.793 130.359 182.026 131.628 182.368 132.65C182.508 133.068 182.927 134.307 184.092 135.05C184.76 135.468 185.521 135.623 186.235 135.623C187.369 135.623 188.425 135.267 189 135.081C191.811 134.137 193.644 132.294 195.275 130.483C196.238 129.415 197.169 128.284 198.07 127.123C198.039 130.096 198.21 132.991 199.204 134.291C199.453 134.616 199.748 134.864 199.903 134.988C199.903 135.034 200.027 135.081 200.027 135.081C201.021 135.437 202.031 135.607 203.009 135.607C203.289 135.607 203.553 135.592 203.832 135.561C207.218 135.22 209.408 132.821 211.738 130.282C212.173 129.802 212.607 129.306 213.011 128.795C213.011 133.208 213.337 134.524 214.425 135.189C214.999 135.545 215.636 135.638 216.211 135.638C216.615 135.638 216.972 135.592 217.267 135.561C219.193 135.313 220.497 134.168 221.662 133.006C222.61 132.062 223.542 131.025 224.442 129.941C224.846 132.48 225.685 134.74 227.518 135.545C228.17 135.84 228.744 135.84 229.133 135.855C229.179 135.855 229.226 135.855 229.273 135.855C232.798 135.855 235.842 132.681 237.69 130.204C238.545 132.449 239.865 134.167 241.496 135.034C242.567 135.607 243.887 135.901 245.27 135.901C246.388 135.901 247.537 135.716 248.609 135.329C251.141 134.415 252.476 132.604 254.045 130.514C254.154 130.374 254.231 130.22 254.34 130.08C254.418 133.084 254.526 134.926 255.893 135.747C256.344 136.025 256.856 136.118 257.369 136.118C258.207 136.118 259.046 135.855 259.683 135.654C262.028 134.911 263.348 133.517 265.988 130.761C266.532 130.189 267.091 129.616 267.635 129.043C267.79 130.405 268.023 131.675 268.365 132.697C268.505 133.115 268.924 134.353 270.089 135.096C270.757 135.514 271.518 135.669 272.232 135.669C273.366 135.669 274.422 135.313 274.997 135.127C277.808 134.183 279.64 132.341 281.271 130.529C282.405 129.275 283.477 127.959 284.517 126.597C284.533 127.355 284.548 128.052 284.564 128.687C284.626 132.635 284.657 134.446 286.086 135.282C286.614 135.592 287.313 135.747 288.152 135.747C288.664 135.747 289.239 135.685 289.844 135.561C291.304 135.267 292.376 134.539 293.23 133.873C294.939 132.557 296.352 130.947 297.501 129.399C298.045 130.761 298.775 132 299.691 133.037C301.648 135.251 304.273 136.165 306.867 136.165C309.212 136.165 311.557 135.422 313.39 134.183C317.024 131.752 319.416 127.324 319.82 122.308C321.062 122.061 322.243 121.643 323.361 121.054C323.361 121.194 323.345 121.348 323.345 121.488C323.345 123.748 323.423 126.039 323.485 128.253C323.547 130.189 323.609 132.186 323.625 134.152C323.625 134.508 323.641 135.453 324.308 135.917C324.572 136.103 324.914 136.165 325.24 136.165C326.219 136.165 327.275 135.592 327.337 135.561C329.232 134.508 329.139 132.015 328.952 127.479C328.906 126.457 328.875 125.312 328.844 124.073C330.459 121.612 332.136 119.181 333.876 116.828C335.134 115.14 336.283 113.623 336.78 113.623C337.277 113.793 337.122 115.527 336.889 117.927C336.687 120.187 336.392 123.268 336.345 127.154C336.299 131.613 336.625 134.26 338.52 135.545C339.498 136.211 340.57 136.273 341.191 136.273C341.269 136.273 341.331 136.273 341.377 136.273C346.145 136.211 350.416 131.303 352.544 128.393C353.165 128.966 353.787 129.523 354.408 130.08C356.567 132 358.788 133.966 360.17 136.18C362.111 139.261 361.552 144.231 358.943 147.25C357.545 148.875 355.526 149.897 352.964 150.315C351.814 150.501 348.786 150.981 346.223 149.092C345.384 148.473 344.685 147.668 344.157 146.708C345.074 146.615 345.943 146.321 346.673 145.856C348.568 144.664 350.059 142.094 349.298 139.865C349.236 139.664 348.584 137.914 346.906 137.481C345.384 137.063 344.064 138.023 343.629 138.332C341.051 140.19 341.175 144.03 341.253 145.02C340.476 145.113 339.731 145.051 339.032 144.881C338.69 144.788 338.364 144.664 338.069 144.556C337.401 144.308 336.827 144.091 336.407 144.432C336.33 144.494 336.128 144.695 336.112 144.974C336.05 146.042 338.721 146.739 339.016 146.816C339.871 147.033 340.772 147.11 341.688 147.018C341.874 147.42 342.092 147.792 342.34 148.163C342.34 148.163 343.319 149.65 344.794 150.826C346.347 152.049 349.096 153.272 352.327 153.288C356.831 153.319 359.906 150.996 360.745 150.346C361.692 149.619 364.845 146.863 365.792 142.311C366.274 140.004 366.01 138.115 365.917 137.605C365.202 133.285 362.407 130.839 359.689 128.47ZM64.2839 130.7C62.1406 130.916 60.3545 129.662 59.0964 127.092C56.9221 122.633 57.4191 117.664 60.3234 114.227C60.3234 116.549 61.0379 118.453 62.4667 119.893C64.4858 121.937 67.9493 122.958 72.2514 122.819C71.2264 126.334 67.7784 130.359 64.2839 130.7ZM65.5109 117.571C64.61 116.657 63.1656 114.892 63.7092 113.344C64.0665 112.307 65.0449 111.502 66.303 111.192C66.6757 111.099 67.0485 111.053 67.4057 111.053C68.3531 111.053 69.2384 111.362 69.8596 111.935C71.9874 113.871 72.7018 117.215 72.6552 119.785C69.7043 120.156 67.3591 119.429 65.5109 117.571ZM124.002 126.705C122.945 128.377 121.392 130.034 119.202 130.761C118.519 130.978 117.277 131.396 115.956 130.947C112.928 129.91 112.182 125.219 112.027 123.81C111.483 118.933 113.704 111.471 118.395 110.913C120.818 110.619 123.008 112.214 124.452 113.638C124.374 116.564 124.219 121.209 124.002 126.705ZM306.68 113.329C307.053 112.276 308.032 111.471 309.321 111.146C309.693 111.053 310.066 111.006 310.439 111.006C311.402 111.006 312.303 111.316 312.924 111.889C315.067 113.84 315.782 117.23 315.735 119.816C312.738 120.203 310.361 119.475 308.498 117.586C307.581 116.673 306.121 114.892 306.68 113.329ZM315.331 122.773C314.306 126.318 310.827 130.405 307.302 130.746C305.158 130.963 303.326 129.709 302.068 127.108C299.862 122.587 300.39 117.54 303.388 114.087C303.357 116.456 304.071 118.391 305.516 119.847C307.55 121.89 311.029 122.943 315.331 122.773ZM254.573 121.782C254.48 123.392 254.387 125.049 254.356 126.69C253.299 128.207 251.839 129.662 249.805 130.328C249.137 130.545 247.879 130.963 246.559 130.514C243.53 129.492 242.785 124.894 242.629 123.516C242.086 118.732 244.307 111.409 248.997 110.852C251.265 110.573 253.346 111.935 254.775 113.267C254.915 116.115 254.759 118.98 254.573 121.782ZM229.49 114.366C229.614 96.2519 231.928 94.3167 232.643 94.1619C232.689 94.1464 232.891 94.1154 233.171 94.1154C233.482 94.1154 233.87 94.1619 234.274 94.3631C235.128 94.7811 235.501 95.6791 235.64 96.0042C238.032 101.764 232.689 113.422 232.643 113.53C231.711 115.527 230.655 117.509 229.49 119.413C229.49 118.159 229.49 116.41 229.49 114.366ZM168.607 121.782C168.499 123.392 168.421 125.049 168.39 126.69C167.334 128.207 165.874 129.662 163.839 130.328C163.171 130.545 161.913 130.963 160.578 130.514C157.534 129.492 156.804 124.894 156.648 123.516C156.105 118.732 158.326 111.409 163.016 110.852C165.299 110.588 167.365 111.935 168.794 113.251C168.949 116.115 168.794 118.98 168.607 121.782ZM137.157 109.644C137.436 109.644 137.7 109.706 137.902 109.845C138.197 110.046 138.399 110.511 138.492 111.146C138.772 113.158 137.591 115.032 136.784 116.053C136.24 115.635 135.402 114.815 135.013 113.561C134.827 112.926 134.423 111.61 135.169 110.635C135.666 110.015 136.489 109.644 137.157 109.644ZM123.303 144.649C123.365 147.265 123.287 149.882 123.101 152.452C122.883 155.223 122.65 156.601 121.687 157.917C120.631 159.372 119.513 160.131 118.364 160.131C116.547 160.131 115.226 158.242 115.087 158.025C112.804 154.619 117.137 147.513 123.039 138.564C123.225 138.301 123.396 138.023 123.582 137.759C123.489 140.035 123.396 142.342 123.303 144.649ZM345.928 139.896C346.021 139.896 346.906 139.927 347.326 140.531C347.869 141.336 347.217 142.543 347 142.899C346.052 144.448 344.018 144.68 343.334 144.711C343.179 144.061 342.977 142.729 343.722 141.491C344.359 140.438 345.12 139.88 345.928 139.896Z" fill="#002F6C"/>
</g>
<defs>
<clipPath id="clip0_242_342">
<rect width="378" height="198" fill="white"/>
</clipPath>
</defs>
</svg>
