<svg width="89" height="89" viewBox="0 0 89 89" fill="none" xmlns="http://www.w3.org/2000/svg">
<path d="M0 44.5C-7.69431e-07 53.3013 2.60988 61.9049 7.4996 69.2229C12.3893 76.5409 19.3393 82.2445 27.4706 85.6126C35.6019 88.9807 44.5494 89.862 53.1815 88.1449C61.8137 86.4279 69.7428 82.1897 75.9662 75.9663C82.1897 69.7428 86.4279 61.8137 88.1449 53.1815C89.862 44.5494 88.9807 35.6019 85.6126 27.4706C82.2445 19.3393 76.5409 12.3893 69.2229 7.4996C61.9049 2.60988 53.3013 6.64477e-07 44.5 0V17.8C49.7808 17.8 54.9429 19.3659 59.3337 22.2998C63.7245 25.2336 67.1467 29.4036 69.1676 34.2824C71.1884 39.1611 71.7172 44.5296 70.687 49.7089C69.6567 54.8882 67.1138 59.6457 63.3797 63.3798C59.6457 67.1138 54.8882 69.6567 49.7089 70.687C44.5296 71.7172 39.1611 71.1884 34.2823 69.1676C29.4036 67.1467 25.2336 63.7245 22.2998 59.3337C19.3659 54.9429 17.8 49.7808 17.8 44.5H0Z" fill="#002F6C"/>
<path d="M44.5 0C35.9862 -1.01526e-07 27.6511 2.44231 20.4837 7.03714L30.0902 22.0223C34.3907 19.2654 39.3917 17.8 44.5 17.8V0Z" fill="#CECECE"/>
<path d="M21.3327 6.50621C14.773 10.5061 9.36064 16.1362 5.62246 22.8485C1.88427 29.5608 -0.0523575 37.1266 0.00107622 44.8095L17.8006 44.6857C17.7686 40.076 18.9306 35.5365 21.1735 31.5091C23.4164 27.4817 26.6638 24.1037 30.5996 21.7037L21.3327 6.50621Z" fill="#E91A2A"/>
</svg>
