<svg width="104" height="44" viewBox="0 0 104 44" fill="none" xmlns="http://www.w3.org/2000/svg">
<path fill-rule="evenodd" clip-rule="evenodd" d="M60.3016 3.18097C57.5402 3.18097 55.3016 5.41954 55.3016 8.18096V24.8751C55.3016 27.6365 57.5402 29.8751 60.3016 29.8751H62.7956C63.0984 29.9878 63.3948 30.0623 63.6808 30.0926C67.5384 30.5009 72.4054 31.3881 77.1614 33.2756C83.6401 35.9351 86.0118 39.7883 87.512 42.2255C87.6102 42.3851 87.7047 42.5386 87.7963 42.6854C88.8929 44.4404 90.381 43.052 90.381 40.9826V22.797C90.381 22.7934 90.3809 22.7898 90.3809 22.7862V8.18097C90.3809 5.41955 88.1424 3.18097 85.3809 3.18097H60.3016Z" fill="#E91A2A" fill-opacity="0.9"/>
<path d="M13.8607 12.1946C12.6607 12.1946 11.5087 12.5786 10.6447 13.1306V6.48257H7.95666V24.4826H9.54066L9.97266 23.5226C11.0287 24.2906 12.2527 24.7706 13.8607 24.7706C17.3647 24.7706 18.6607 22.4186 18.6607 18.4826C18.6607 14.5706 17.3647 12.1946 13.8607 12.1946ZM13.2367 14.4746C15.5887 14.4746 15.9487 16.2746 15.9487 18.4826C15.9487 20.7146 15.5887 22.4906 13.2367 22.4906C11.9647 22.4906 11.1247 22.0586 10.6447 21.7946V15.1706C11.1247 14.9066 11.9647 14.4746 13.2367 14.4746ZM26.2925 16.2026V16.8026L23.6045 17.0186C20.8925 17.2346 19.2125 18.3386 19.2125 20.9306C19.2125 22.8506 20.2445 24.7706 23.3405 24.7706C24.6605 24.7706 26.0045 24.3146 26.9645 23.5226L27.3965 24.4826H28.9805V16.4666C28.9805 13.9226 28.0685 12.1946 24.1325 12.1946C22.7165 12.1946 21.1325 12.4826 20.1965 12.8906V15.2186C21.1085 14.8586 22.3805 14.4986 23.9405 14.4986C25.7165 14.4986 26.2925 14.9786 26.2925 16.2026ZM26.2925 18.6506V21.7706C25.5485 22.2506 24.8045 22.5626 23.7245 22.5626C22.2605 22.5626 21.8765 21.6986 21.8765 20.7866C21.8765 19.5386 22.5725 19.0826 23.7725 18.9386L26.2925 18.6506ZM40.2627 24.4826V16.0106C40.2627 13.7066 39.1827 12.1946 36.1347 12.1946C34.8387 12.1946 33.4707 12.6026 32.2467 13.4426L31.8147 12.4826H30.2307V24.4826H32.9187V15.1706C33.5667 14.8106 34.4307 14.4746 35.6787 14.4746C36.9507 14.4746 37.5747 15.0266 37.5747 16.2506V24.4826H40.2627ZM51.9127 12.4826H48.4327L44.1847 17.1386V6.48257H41.4967V24.4826H44.1847V20.3306L45.3367 19.1546L49.0807 24.4826H52.4167L47.0407 17.4266L51.9127 12.4826Z" fill="#002F6C"/>
<path d="M65.4248 14.5386C63.5528 14.2746 62.8568 13.8666 62.8568 12.5706C62.8568 11.4186 63.9608 10.7946 65.9528 10.7946C67.7768 10.7946 69.7688 11.2746 70.7528 11.7546V8.03457C69.9128 7.57857 68.1128 7.14657 65.6648 7.14657C60.9128 7.14657 58.9208 9.30657 58.9208 12.5706C58.9208 16.0986 60.6728 17.4426 65.2328 18.0426C67.0568 18.2826 67.6568 18.7386 67.6568 20.1066C67.6568 21.3306 66.8648 22.1706 64.1528 22.1706C61.7768 22.1706 59.7608 21.2586 58.9208 20.7786V24.7146C60.2168 25.4826 62.5928 25.8186 64.5368 25.8186C68.7848 25.8186 71.5928 24.2106 71.5928 19.7466C71.5928 15.9066 69.4088 15.0906 65.4248 14.5386ZM76.4215 25.4826L77.2615 21.7866H81.8215L82.6615 25.4826H86.7415L81.7495 7.38657H77.3335L72.3415 25.4826H76.4215ZM79.5415 11.9226L81.0775 18.7386H78.0055L79.5415 11.9226Z" fill="white"/>
</svg>
