<svg width="119" height="108" viewBox="0 0 119 108" fill="none" xmlns="http://www.w3.org/2000/svg">
<path fill-rule="evenodd" clip-rule="evenodd" d="M22 7.70773C19.2386 7.70773 17 9.94631 17 12.7077V67.3897C17 70.1511 19.2386 72.3897 22 72.3897H31.0698C41.0104 73.0188 55.6953 74.9649 69.968 80.6294C85.6663 87.0734 91.4132 96.4102 95.0482 102.316C96.4455 104.586 97.5307 106.349 98.7491 107.246C100.416 108.473 102 106.274 102 104.205V67.3985C102 67.3955 102 67.3926 102 67.3897L102 48.1375L102 12.7077C102 9.94631 99.7614 7.70773 97 7.70773H22Z" fill="#E91A2A"/>
<path d="M41.4747 33.64C36.7947 32.98 35.0547 31.96 35.0547 28.72C35.0547 25.84 37.8147 24.28 42.7947 24.28C47.3547 24.28 52.3347 25.48 54.7947 26.68V17.38C52.6947 16.24 48.1947 15.16 42.0747 15.16C30.1947 15.16 25.2147 20.56 25.2147 28.72C25.2147 37.54 29.5947 40.9 40.9947 42.4C45.5547 43 47.0547 44.14 47.0547 47.56C47.0547 50.62 45.0747 52.72 38.2947 52.72C32.3547 52.72 27.3147 50.44 25.2147 49.24V59.08C28.4547 61 34.3947 61.84 39.2547 61.84C49.8747 61.84 56.8947 57.82 56.8947 46.66C56.8947 37.06 51.4347 35.02 41.4747 33.64ZM68.9664 61L71.0664 51.76H82.4664L84.5664 61H94.7664L82.2864 15.76H71.2464L58.7664 61H68.9664ZM76.7664 27.1L80.6064 44.14H72.9264L76.7664 27.1Z" fill="white"/>
</svg>
