<svg width="48" height="48" xmlns="http://www.w3.org/2000/svg">

 <g>
  <title>Layer 1</title>
  <path fill="#ffffff" id="svg_1" d="m8,22.25l0,-14.25l14.25,0l0,14.25l-14.25,0zm1.55,-1.55l11.15,0l0,-11.15l-11.15,0l0,11.15zm-1.55,19.3l0,-14.25l14.25,0l0,14.25l-14.25,0zm1.55,-1.55l11.15,0l0,-11.15l-11.15,0l0,11.15zm16.2,-16.2l0,-14.25l14.25,0l0,14.25l-14.25,0zm1.55,-1.55l11.15,0l0,-11.15l-11.15,0l0,11.15zm9.15,19.3l0,-3.55l3.55,0l0,3.55l-3.55,0zm-10.7,-10.65l0,-3.6l3.6,0l0,3.6l-3.6,0zm3.6,3.5l0,-3.5l3.55,0l0,3.5l-3.55,0zm-3.6,3.6l0,-3.6l3.6,0l0,3.6l-3.6,0zm3.6,3.55l0,-3.55l3.55,0l0,3.55l-3.55,0zm3.55,-3.55l0,-3.6l3.55,0l0,3.6l-3.55,0zm0,-7.1l0,-3.6l3.55,0l0,3.6l-3.55,0zm3.55,3.5l0,-3.5l3.55,0l0,3.5l-3.55,0z"/>
 </g>
</svg>