<svg width="17" height="18" viewBox="0 0 17 18" fill="none" xmlns="http://www.w3.org/2000/svg">
<path d="M1 12C0.447715 12 0 12.4477 0 13C0 13.5523 0.447715 14 1 14V12ZM3.4 6.6H2.4H3.4ZM14.6 6.6H15.6H14.6ZM10.384 16.2L11.249 16.7018C11.4284 16.3924 11.429 16.0108 11.2505 15.7009C11.072 15.391 10.7416 15.2 10.384 15.2V16.2ZM7.616 16.2V15.2C7.25837 15.2 6.92796 15.391 6.74946 15.7009C6.57096 16.0108 6.57155 16.3924 6.751 16.7018L7.616 16.2ZM17 12H1V14H17V12ZM1 14C2.87777 14 4.4 12.4778 4.4 10.6H2.4C2.4 11.3732 1.7732 12 1 12V14ZM4.4 10.6V6.6H2.4V10.6H4.4ZM4.4 6.6C4.4 4.05949 6.45949 2 9 2V0C5.35492 0 2.4 2.95492 2.4 6.6H4.4ZM9 2C11.5405 2 13.6 4.05949 13.6 6.6H15.6C15.6 2.95492 12.6451 0 9 0V2ZM13.6 6.6V10.6H15.6V6.6H13.6ZM13.6 10.6C13.6 12.4778 15.1222 14 17 14V12C16.2268 12 15.6 11.3732 15.6 10.6H13.6ZM9.519 15.6982C9.41166 15.8833 9.21392 15.9972 9 15.9972V17.9972C9.92699 17.9972 10.7839 17.5036 11.249 16.7018L9.519 15.6982ZM9 15.9972C8.78608 15.9972 8.58834 15.8833 8.481 15.6982L6.751 16.7018C7.21614 17.5036 8.07301 17.9972 9 17.9972V15.9972ZM7.616 17.2H10.384V15.2H7.616V17.2Z" fill="#002F6C"/>
</svg>
